<svg width="132" height="99" viewBox="0 0 132 99" fill="none" xmlns="http://www.w3.org/2000/svg">
<path d="M38.12 93.864C35.24 93.864 31.544 93.576 27.032 93C27.512 88.008 27.896 81.336 28.184 72.984C28.472 64.536 28.616 56.808 28.616 49.8C28.616 45.768 28.52 41.16 28.328 35.976L28.184 32.52C16.568 32.616 9.32 33.24 6.44 34.392C5.96 30.36 5.72 27.144 5.72 24.744C5.72 22.632 5.96 20.136 6.44 17.256C10.472 17.64 15.848 17.976 22.568 18.264C29.288 18.456 35.672 18.552 41.72 18.552C56.408 18.552 65.432 17.928 68.792 16.68C69.272 20.232 69.512 23.016 69.512 25.032C69.512 28.008 69.272 30.936 68.792 33.816C62.36 33.24 55.208 32.904 47.336 32.808C46.856 42.408 46.616 51.576 46.616 60.312C46.616 78.072 47.384 88.968 48.92 93C46.52 93.576 42.92 93.864 38.12 93.864Z" fill="#FF9900"/>
<path d="M27.032 93L22.055 92.5214L21.5911 97.346L26.3988 97.9597L27.032 93ZM28.184 72.984L33.181 73.1563L33.1811 73.1544L28.184 72.984ZM28.328 35.976L33.3246 35.7909L33.3241 35.7794L33.3237 35.7678L28.328 35.976ZM28.184 32.52L33.1797 32.3118L32.9784 27.4802L28.1427 27.5202L28.184 32.52ZM6.44 34.392L1.47506 34.9831L2.24552 41.455L8.29696 39.0344L6.44 34.392ZM6.44 17.256L6.91405 12.2785L2.27426 11.8366L1.50803 16.434L6.44 17.256ZM22.568 18.264L22.3539 23.2594L22.3895 23.2609L22.4252 23.262L22.568 18.264ZM68.792 16.68L73.747 16.0104L72.91 9.8167L67.0511 11.9929L68.792 16.68ZM68.792 33.816L68.346 38.7961L72.9621 39.2094L73.724 34.638L68.792 33.816ZM47.336 32.808L47.397 27.8084L42.5827 27.7497L42.3422 32.5583L47.336 32.808ZM48.92 93L50.0869 97.8619L55.6171 96.5347L53.5924 91.22L48.92 93ZM38.12 88.864C35.5364 88.864 32.0724 88.6029 27.6652 88.0403L26.3988 97.9597C31.0156 98.5491 34.9436 98.864 38.12 98.864V88.864ZM32.009 93.4786C32.5031 88.3401 32.8915 81.553 33.181 73.1563L23.187 72.8117C22.9005 81.119 22.5209 87.6759 22.055 92.5214L32.009 93.4786ZM33.1811 73.1544C33.4707 64.6607 33.616 56.8749 33.616 49.8H23.616C23.616 56.7411 23.4733 64.4113 23.1869 72.8136L33.1811 73.1544ZM33.616 49.8C33.616 45.6918 33.5182 41.0202 33.3246 35.7909L23.3314 36.1611C23.5218 41.2998 23.616 45.8442 23.616 49.8H33.616ZM33.3237 35.7678L33.1797 32.3118L23.1883 32.7281L23.3323 36.1841L33.3237 35.7678ZM28.1427 27.5202C22.2717 27.5687 17.4125 27.7508 13.6071 28.0784C9.97335 28.3913 6.77766 28.8718 4.58304 29.7496L8.29696 39.0344C8.98234 38.7602 10.8507 38.3527 14.4649 38.0416C17.9075 37.7452 22.4803 37.5673 28.2253 37.5198L28.1427 27.5202ZM11.4049 33.8009C10.9347 29.851 10.72 26.8577 10.72 24.744H0.72C0.72 27.4303 0.985287 30.869 1.47506 34.9831L11.4049 33.8009ZM10.72 24.744C10.72 22.9891 10.9215 20.781 11.372 18.078L1.50803 16.434C0.998536 19.491 0.72 22.2749 0.72 24.744H10.72ZM5.96595 22.2335C10.1221 22.6293 15.5956 22.9698 22.3539 23.2594L22.7821 13.2686C16.1004 12.9822 10.8219 12.6507 6.91405 12.2785L5.96595 22.2335ZM22.4252 23.262C29.1876 23.4552 35.6195 23.552 41.72 23.552V13.552C35.7245 13.552 29.3884 13.4568 22.7108 13.266L22.4252 23.262ZM41.72 23.552C49.1178 23.552 55.174 23.3954 59.8489 23.0721C64.3295 22.7623 68.0961 22.2722 70.5329 21.3671L67.0511 11.9929C66.1279 12.3358 63.7026 12.7817 59.1591 13.0959C54.81 13.3966 49.0102 13.552 41.72 13.552V23.552ZM63.837 17.3496C64.3063 20.8218 64.512 23.3482 64.512 25.032H74.512C74.512 22.6838 74.2377 19.6422 73.747 16.0104L63.837 17.3496ZM64.512 25.032C64.512 27.7379 64.2939 30.3908 63.86 32.994L73.724 34.638C74.2501 31.4811 74.512 28.2781 74.512 25.032H64.512ZM69.238 28.8359C62.6539 28.2463 55.3708 27.9056 47.397 27.8084L47.275 37.8076C55.0452 37.9024 62.0661 38.2337 68.346 38.7961L69.238 28.8359ZM42.3422 32.5583C41.8585 42.2333 41.616 51.485 41.616 60.312H51.616C51.616 51.667 51.8535 42.5827 52.3298 33.0577L42.3422 32.5583ZM41.616 60.312C41.616 69.2467 41.8087 76.5414 42.2044 82.1556C42.586 87.5692 43.1848 91.9901 44.2476 94.78L53.5924 91.22C53.1192 89.9779 52.5661 86.9348 52.1796 81.4524C51.8073 76.1706 51.616 69.1373 51.616 60.312H41.616ZM47.7531 88.1381C45.9432 88.5724 42.8225 88.864 38.12 88.864V98.864C43.0175 98.864 47.0968 98.5796 50.0869 97.8619L47.7531 88.1381Z" fill="black"/>
<path d="M78.28 93.864C75.112 93.864 71.368 93.576 67.048 93C67.72 80.712 68.056 68.472 68.056 56.28C68.056 39.576 67.576 26.52 66.616 17.112C72.952 15.192 80.2 14.232 88.36 14.232C87.496 20.568 86.824 29.736 86.344 41.736C91.72 35.784 98.152 32.808 105.64 32.808C116.872 32.808 122.488 39.432 122.488 52.68L122.2 61.752L121.912 71.4C121.912 81.48 122.872 88.68 124.792 93C122.104 93.576 118.12 93.864 112.84 93.864C109.576 93.864 106.264 93.576 102.904 93C103.576 82.92 103.912 72.264 103.912 61.032C103.912 57.192 103.24 54.456 101.896 52.824C100.552 51.096 98.344 50.232 95.272 50.232C91.72 50.232 88.696 51.24 86.2 53.256L86.056 61.464C86.056 78.264 87.064 88.776 89.08 93C85.528 93.576 81.928 93.864 78.28 93.864Z" fill="#FF9900"/>
<path d="M67.048 93L62.0555 92.727L61.8029 97.3449L66.3872 97.9561L67.048 93ZM66.616 17.112L65.166 12.3269L61.2237 13.5215L61.6418 17.6196L66.616 17.112ZM88.36 14.232L93.3142 14.9076L94.0881 9.23199H88.36V14.232ZM86.344 41.736L81.348 41.5362L80.7959 55.338L90.0545 45.0874L86.344 41.736ZM122.488 52.68L127.485 52.8387L127.488 52.7593V52.68H122.488ZM122.2 61.752L117.203 61.5933L117.202 61.6028L122.2 61.752ZM121.912 71.4L116.914 71.2508L116.912 71.3254V71.4H121.912ZM124.792 93L125.84 97.889L131.863 96.5983L129.361 90.9693L124.792 93ZM102.904 93L97.9151 92.6674L97.6152 97.1663L102.059 97.9281L102.904 93ZM101.896 52.824L97.9492 55.8937L97.992 55.9487L98.0364 56.0025L101.896 52.824ZM86.2 53.256L83.0583 49.3663L81.2417 50.8335L81.2008 53.1683L86.2 53.256ZM86.056 61.464L81.0568 61.3763L81.056 61.4201V61.464H86.056ZM89.08 93L89.8804 97.9355L96.4662 96.8676L93.5924 90.8464L89.08 93ZM78.28 88.864C75.3976 88.864 71.8848 88.6007 67.7088 88.0439L66.3872 97.9561C70.8512 98.5513 74.8264 98.864 78.28 98.864V88.864ZM72.0405 93.273C72.7175 80.895 73.056 68.5639 73.056 56.28H63.056C63.056 68.3801 62.7225 80.529 62.0555 92.727L72.0405 93.273ZM73.056 56.28C73.056 39.5136 72.5756 26.2617 71.5902 16.6044L61.6418 17.6196C62.5764 26.7783 63.056 39.6384 63.056 56.28H73.056ZM68.066 21.8971C73.8375 20.1482 80.5819 19.232 88.36 19.232V9.23199C79.8181 9.23199 72.0665 10.2358 65.166 12.3269L68.066 21.8971ZM83.4059 13.5564C82.5092 20.132 81.8299 29.4891 81.348 41.5362L91.34 41.9358C91.8181 29.9829 92.4828 21.004 93.3142 14.9076L83.4059 13.5564ZM90.0545 45.0874C94.5584 40.101 99.6757 37.808 105.64 37.808V27.808C96.6283 27.808 88.8816 31.467 82.6335 38.3846L90.0545 45.0874ZM105.64 37.808C110.249 37.808 112.867 39.1283 114.462 41.0094C116.191 43.0487 117.488 46.6436 117.488 52.68H127.488C127.488 45.4684 125.977 39.1273 122.09 34.5426C118.069 29.7997 112.263 27.808 105.64 27.808V37.808ZM117.491 52.5213L117.203 61.5933L127.197 61.9106L127.485 52.8387L117.491 52.5213ZM117.202 61.6028L116.914 71.2508L126.91 71.5492L127.198 61.9012L117.202 61.6028ZM116.912 71.4C116.912 81.5643 117.845 89.681 120.223 95.0307L129.361 90.9693C127.899 87.679 126.912 81.3957 126.912 71.4H116.912ZM123.744 88.111C121.585 88.5737 118.027 88.864 112.84 88.864V98.864C118.213 98.864 122.623 98.5783 125.84 97.889L123.744 88.111ZM112.84 88.864C109.871 88.864 106.842 88.6022 103.749 88.0719L102.059 97.9281C105.686 98.5498 109.281 98.864 112.84 98.864V88.864ZM107.893 93.3326C108.573 83.1305 108.912 72.3629 108.912 61.032H98.912C98.912 72.1651 98.5789 82.7095 97.9151 92.6674L107.893 93.3326ZM108.912 61.032C108.912 56.8708 108.235 52.6564 105.756 49.6455L98.0364 56.0025C98.2447 56.2556 98.912 57.5132 98.912 61.032H108.912ZM105.843 49.7543C103.21 46.3693 99.2291 45.232 95.272 45.232V55.232C97.4589 55.232 97.894 55.8227 97.9492 55.8937L105.843 49.7543ZM95.272 45.232C90.7068 45.232 86.54 46.5541 83.0583 49.3663L89.3417 57.1457C90.852 55.9259 92.7332 55.232 95.272 55.232V45.232ZM81.2008 53.1683L81.0568 61.3763L91.0552 61.5517L91.1992 53.3437L81.2008 53.1683ZM81.056 61.464C81.056 69.9422 81.3095 76.9464 81.8348 82.4253C82.3422 87.7164 83.1478 92.1789 84.5676 95.1536L93.5924 90.8464C92.9962 89.5971 92.2898 86.6916 91.7892 81.4707C91.3065 76.4376 91.056 69.7857 91.056 61.464H81.056ZM88.2796 88.0645C84.9959 88.597 81.6636 88.864 78.28 88.864V98.864C82.1924 98.864 86.0601 98.555 89.8804 97.9355L88.2796 88.0645Z" fill="black"/>
</svg>
